<svg width="512" height="512" viewBox="0 0 512 512" fill="none" xmlns="http://www.w3.org/2000/svg">
  <!-- Kubernetes wheel (arka planda) -->
  <path d="M256 64C150 64 64 150 64 256s86 192 192 192 192-86 192-192S362 64 256 64z" 
    fill="#326CE5" opacity="0.2"/>
  <path d="M256 96c-88.4 0-160 71.6-160 160s71.6 160 160 160 160-71.6 160-160S344.4 96 256 96z" 
    stroke="#326CE5" strokeWidth="16"/>
  
  <!-- Kubernetes propellers -->
  <g transform="rotate(45, 256, 256)">
    {[0, 60, 120, 180, 240, 300].map(angle => (
      <path transform={`rotate(${angle}, 256, 256)`}
        d="M256 96v32M256 384v32" stroke="#326CE5" strokeWidth="16" strokeLinecap="round"/>
    ))}
  </g>

  <!-- Brain icon (sağ tarafta) -->
  <path d="M320 176c-13.3 0-24 10.7-24 24s10.7 24 24 24 24-10.7 24-24-10.7-24-24-24zm-64 80c13.3 0 24-10.7 24-24s-10.7-24-24-24-24 10.7-24 24 10.7 24 24 24z" 
    fill="#6366F1"/>
  <path d="M384 256c0-53-43-96-96-96s-96 43-96 96 43 96 96 96 96-43 96-96zm-96-64c35.3 0 64 28.7 64 64s-28.7 64-64 64-64-28.7-64-64 28.7-64 64-64z" 
    fill="#6366F1"/>

  <!-- Person icon (sol tarafta) -->
  <circle cx="192" cy="192" r="32" fill="#6366F1"/>
  <path d="M192 240c-35.3 0-64 28.7-64 64v32h128v-32c0-35.3-28.7-64-64-64zm-32 64c0-17.7 14.3-32 32-32s32 14.3 32 32v16h-64v-16z" 
    fill="#6366F1"/>
</svg> 